<?xml version="1.0" encoding="utf-8"?>
<!-- Generator: Adobe Illustrator 22.1.0, SVG Export Plug-In . SVG Version: 6.00 Build 0)  -->
<svg version="1.1" id="图层_1" xmlns="http://www.w3.org/2000/svg" xmlns:xlink="http://www.w3.org/1999/xlink" x="0px" y="0px"
	 viewBox="0 0 1440 890" style="enable-background:new 0 0 1440 890;" xml:space="preserve">
<style type="text/css">
	.st0{opacity:0.73;}
	.st1{fill:#8E9CAA;}
	.st2{fill:#13A33F;}
	.st3{fill:#ABBCCC;}
	.st4{fill:#1793EF;}
	.st5{fill:#A2FF00;}
	.st6{fill:#6F04A8;}
	.st7{fill:#000131;}
	.st8{opacity:0.86;fill:url(#SVGID_1_);enable-background:new    ;}
	.st9{opacity:0.86;fill:#E66032;enable-background:new    ;}
</style>
<g>
	<g class="st0">
		<path class="st1" d="M1064.1,209.8L671.8-16.9V-17L15.1,362.8L15,666l262.2-151.5V317.9l394-227.6L1102,338.9L1718-17v-151
			L1064.1,209.8z"/>
		<path class="st1" d="M1063.3,59L1326-92.1V-243L932-16.5L1063.3,59z"/>
		<path class="st2" d="M539-243.6v0.1L800.9-92.4L670-16.9v0.1L1063,210l655-378v-0.1l-131-75.6L1325-92.5L1063,58.7L932.1-16.8
			L1325-243.6v-0.1l-131-75.6L932-168.1l-0.1-0.1L801-243.7l0,0l0,0l0,0l131-75.6v-0.1L801-395L539-243.6z"/>
		<path class="st3" d="M276,58l131.6-75.9l0.4-0.2L276.5-94l0,0L276,58z"/>
		<path class="st4" d="M670,245l-126,73L670,245z"/>
		<path class="st1" d="M277-92L15,59.6V211L277,59V-92z"/>
		<path class="st3" d="M14.7,209.8L15,210V59l-395-227v151.3L14.7,209.8z M-512,362.1L15,666V362.6L-511.7,59L-512,362.1z"/>
		<path class="st5" d="M13.7-396l-394.3,227.9v0.3l394.3,228L276.4-91.7L277-92l130.9,75.7l-0.4,0.2l-393.8,228l-0.3-0.2l-394-227.5
			L-512,60L13.8,364L670.9-16.4h0.1L540.2-92L13.7-396L13.7-396z M-112.5-167.9l126.2-72.9l126.2,72.9L13.7-95L-112.5-167.9
			L-112.5-167.9z"/>
		<path class="st1" d="M670,850l130.8-76.1V622.1l131.2-76l-0.1-0.1V395L670,546.7V850z M932.8,697.7v151.7L801,925.3V1077
			l263.5-151.8V773.5L1328,621.7V470L932.8,697.7z"/>
		<path class="st6" d="M932.1,545l131.9-76.1L932.6,393l-0.6,0.3L932.1,545L932.1,545z M801,773.3L933,849V697.7L801,622V773.3z
			 M276,513.5v258.8L802,1076V924.1l-131.3-75.8V544.8L276,317V513.5z M410.2,539.8l134.1,77.4l-39.1,22.6l39.2-22.7v0.1l0.1,0.1
			l-0.1,0.1l0.2,154.7h-0.1l-134.1-77.2l0.1-0.1l69.3-40.2l-69.5,40.1L410.2,539.8L410.2,539.8z"/>
		<path class="st4" d="M544,618.1L544,618.1L544,618.1L544,618.1z"/>
		<path class="st1" d="M543,616l-134-77v154l69.5-39.8l25.5-14.7L543,616z"/>
		<path class="st7" d="M542.8,618.1L542.8,618.1l-39.1,22.6l-25.4,14.8l-69.2,40.2l-0.1,0.1L542.9,773h0.1l-0.2-154.8V618.1z
			 M800.8,925L932,849l-131.2-76L670,849.2L800.8,925z M669.7,389.6l-126-72.8l126-72.8l126,72.8L669.7,389.6L669.7,389.6z
			 M276,316.6v0.3l393.7,227.6L932,392.9l0.6-0.3l130.7,75.6L800.7,620.1L932,696l394-227.9l-225.8-130.4L669.7,89L276,316.6
			L276,316.6z"/>
		<path class="st1" d="M544,318l126,73V245L544,318z"/>
		<path class="st3" d="M670,391l126-73l-126-73V391z"/>
	</g>
	
		<linearGradient id="SVGID_1_" gradientUnits="userSpaceOnUse" x1="1069.2825" y1="-332.5143" x2="1070.2825" y2="-331.6823" gradientTransform="matrix(1440 0 0 889.1441 -1539730 295625.8438)">
		<stop  offset="0" style="stop-color:#FFFFFF;stop-opacity:0"/>
		<stop  offset="0.5071" style="stop-color:#FFFFFF;stop-opacity:0.541"/>
		<stop  offset="1" style="stop-color:#FFFFFF"/>
	</linearGradient>
	<path class="st8" d="M485.5,886.5L1440,333.8V0H0v618.2l465.5,268.3C471.7,890,479.3,890,485.5,886.5L485.5,886.5z"/>
	<path class="st9" d="M485.5,886.5L1440,333.8V0H0v618.2l465.5,268.3C471.7,890,479.3,890,485.5,886.5L485.5,886.5z"/>
</g>
</svg>
