<?xml version="1.0" encoding="utf-8"?>
<!-- Generator: Adobe Illustrator 22.1.0, SVG Export Plug-In . SVG Version: 6.00 Build 0)  -->
<svg version="1.1" xmlns="http://www.w3.org/2000/svg" xmlns:xlink="http://www.w3.org/1999/xlink" x="0px" y="0px"
	 viewBox="0 0 128 128" style="enable-background:new 0 0 128 128;" xml:space="preserve">
<style type="text/css">
	.st0{fill:#FFFFFF;stroke:#FFFFFF;stroke-width:2;stroke-miterlimit:10;}
	.st1{fill:none;stroke:#FFFFFF;stroke-width:2;stroke-miterlimit:10;}
	.st2{fill:#FFFFFF;}
</style>
<g id="图层_2">
</g>
<g id="图层_1">
	<line class="st0" x1="64" y1="19" x2="64" y2="109"/>
	<line class="st1" x1="7" y1="64" x2="121" y2="64"/>
	<line class="st1" x1="24.2" y1="64.2" x2="63.8" y2="19.8"/>
	<line class="st1" x1="64.2" y1="108.2" x2="103.8" y2="63.8"/>
	<g>
		<g>
			<path class="st2" d="M64,21.4c1.9,0,1.9-3,0-3C62.1,18.4,62.1,21.4,64,21.4L64,21.4z"/>
		</g>
	</g>
	<g>
		<g>
			<path class="st2" d="M64,109.8c1.9,0,1.9-3,0-3C62.1,106.8,62.1,109.8,64,109.8L64,109.8z"/>
		</g>
	</g>
	<line class="st0" x1="24" y1="19" x2="24" y2="109"/>
	<line class="st0" x1="104" y1="19" x2="104" y2="109"/>
	<g>
		<g>
			<path class="st2" d="M24,65.4c1.9,0,1.9-3,0-3C22.1,62.4,22.1,65.4,24,65.4L24,65.4z"/>
		</g>
	</g>
	<g>
		<g>
			<path class="st2" d="M104,65.4c1.9,0,1.9-3,0-3C102.1,62.4,102.1,65.4,104,65.4L104,65.4z"/>
		</g>
	</g>
</g>
</svg>
